<?xml version="1.0" encoding="UTF-8" standalone="no"?>
<svg
   xmlns:dc="http://purl.org/dc/elements/1.1/"
   xmlns:cc="http://creativecommons.org/ns#"
   xmlns:rdf="http://www.w3.org/1999/02/22-rdf-syntax-ns#"
   xmlns:svg="http://www.w3.org/2000/svg"
   xmlns="http://www.w3.org/2000/svg"
   xmlns:sodipodi="http://sodipodi.sourceforge.net/DTD/sodipodi-0.dtd"
   xmlns:inkscape="http://www.inkscape.org/namespaces/inkscape"
   width="20.5"
   height="17"
   viewBox="0 0 20.5 17"
   version="1.1"
   id="svg6"
   sodipodi:docname="list.svg"
   inkscape:version="0.92.4 (5da689c313, 2019-01-14)">
  <metadata
     id="metadata12">
    <rdf:RDF>
      <cc:Work
         rdf:about="">
        <dc:format>image/svg+xml</dc:format>
        <dc:type
           rdf:resource="http://purl.org/dc/dcmitype/StillImage" />
        <dc:title />
      </cc:Work>
    </rdf:RDF>
  </metadata>
  <defs
     id="defs10" />
  <sodipodi:namedview
     pagecolor="#ffffff"
     bordercolor="#666666"
     borderopacity="1"
     objecttolerance="10"
     gridtolerance="10"
     guidetolerance="10"
     inkscape:pageopacity="0"
     inkscape:pageshadow="2"
     inkscape:window-width="1920"
     inkscape:window-height="1017"
     id="namedview8"
     showgrid="false"
     inkscape:zoom="9.8333333"
     inkscape:cx="-4.5254238"
     inkscape:cy="12"
     inkscape:window-x="-8"
     inkscape:window-y="-8"
     inkscape:window-maximized="1"
     inkscape:current-layer="svg6" />
  <path
     d="M 2.5,7 C 1.67,7 1,7.67 1,8.5 1,9.33 1.67,10 2.5,10 3.33,10 4,9.33 4,8.5 4,7.67 3.33,7 2.5,7 Z m 0,-6 C 1.67,1 1,1.67 1,2.5 1,3.33 1.67,4 2.5,4 3.33,4 4,3.33 4,2.5 4,1.67 3.33,1 2.5,1 Z m 0,12 C 1.67,13 1,13.68 1,14.5 1,15.32 1.68,16 2.5,16 3.32,16 4,15.32 4,14.5 4,13.68 3.33,13 2.5,13 Z m 3,2.5 h 14 v -2 h -14 z m 0,-6 h 14 v -2 h -14 z m 0,-8 v 2 h 14 v -2 z"
     id="path2"
     inkscape:connector-curvature="0"
     style="fill:#dbdbdb;fill-opacity:1" />
  <path
     d="M 0,-7 H 24 V 17 H 0 Z"
     id="path4"
     inkscape:connector-curvature="0"
     style="fill:none" />
</svg>
